<svg width="16" height="16" viewBox="0 0 16 16" fill="none" xmlns="http://www.w3.org/2000/svg">
<path d="M7.99967 15.1667C4.04634 15.1667 0.833008 11.9533 0.833008 8C0.833008 4.04666 4.04634 0.833328 7.99967 0.833328C11.953 0.833328 15.1663 4.04666 15.1663 8C15.1663 11.9533 11.953 15.1667 7.99967 15.1667ZM7.99967 1.83333C4.59967 1.83333 1.83301 4.6 1.83301 8C1.83301 11.4 4.59967 14.1667 7.99967 14.1667C11.3997 14.1667 14.1663 11.4 14.1663 8C14.1663 4.6 11.3997 1.83333 7.99967 1.83333Z" fill="#54555D"/>
<path d="M10.4731 10.62C10.3864 10.62 10.2998 10.6 10.2198 10.5467L8.1531 9.31333C7.63977 9.00667 7.25977 8.33333 7.25977 7.74V5.00667C7.25977 4.73333 7.48643 4.50667 7.75977 4.50667C8.0331 4.50667 8.25977 4.73333 8.25977 5.00667V7.74C8.25977 7.98 8.45977 8.33333 8.66643 8.45333L10.7331 9.68667C10.9731 9.82667 11.0464 10.1333 10.9064 10.3733C10.8064 10.5333 10.6398 10.62 10.4731 10.62Z" fill="#54555D"/>
</svg>
