<svg width="16" height="16" viewBox="0 0 16 16" fill="none" xmlns="http://www.w3.org/2000/svg">
<path d="M11.333 15.1667H4.66634C1.72634 15.1667 0.833008 14.2733 0.833008 11.3333V4.66666C0.833008 1.72666 1.72634 0.833328 4.66634 0.833328H5.66634C6.83301 0.833328 7.19967 1.21333 7.66634 1.83333L8.66634 3.16666C8.88634 3.46 8.91967 3.49999 9.33301 3.49999H11.333C14.273 3.49999 15.1663 4.39333 15.1663 7.33333V11.3333C15.1663 14.2733 14.273 15.1667 11.333 15.1667ZM4.66634 1.83333C2.27967 1.83333 1.83301 2.28666 1.83301 4.66666V11.3333C1.83301 13.7133 2.27967 14.1667 4.66634 14.1667H11.333C13.7197 14.1667 14.1663 13.7133 14.1663 11.3333V7.33333C14.1663 4.95333 13.7197 4.49999 11.333 4.49999H9.33301C8.47967 4.49999 8.19967 4.20666 7.86634 3.76666L6.86634 2.43333C6.51967 1.97333 6.41301 1.83333 5.66634 1.83333H4.66634Z" fill="#54555D"/>
<path d="M13.333 4.75333C13.0597 4.75333 12.833 4.52666 12.833 4.25333V3.33333C12.833 2.27999 12.3863 1.83333 11.333 1.83333H5.33301C5.05967 1.83333 4.83301 1.60666 4.83301 1.33333C4.83301 1.05999 5.05967 0.833328 5.33301 0.833328H11.333C12.9463 0.833328 13.833 1.71999 13.833 3.33333V4.25333C13.833 4.52666 13.6063 4.75333 13.333 4.75333Z" fill="#54555D"/>
</svg>
