<svg width="11" height="18" viewBox="0 0 11 18" fill="none" xmlns="http://www.w3.org/2000/svg">
<path d="M7.55177 3.00001H9.93654C10.1559 3.00001 10.334 2.83201 10.334 2.62501V0.375002C10.334 0.168001 10.1559 0 9.93654 0H7.55177C5.14157 0 3.17969 1.85026 3.17969 4.12502V6.75003H0.397462C0.178063 6.75003 0 6.91803 0 7.12503V9.37504C0 9.58204 0.178063 9.75004 0.397462 9.75004H3.17969V17.6251C3.17969 17.8321 3.35776 18.0001 3.57716 18.0001H5.96193C6.18133 18.0001 6.35939 17.8321 6.35939 17.6251V9.75004H9.14162C9.31253 9.75004 9.46436 9.64654 9.51921 9.49354L10.3141 7.24353C10.3547 7.12953 10.334 7.00353 10.2593 6.90528C10.1838 6.80778 10.0645 6.75003 9.93654 6.75003H6.35939V4.12502C6.35939 3.50477 6.89437 3.00001 7.55177 3.00001Z" fill="#0A142F"/>
</svg>
