<svg width="18" height="18" viewBox="0 0 18 18" fill="none" xmlns="http://www.w3.org/2000/svg">
<path d="M2.2468 4.49924C3.48767 4.49924 4.4936 3.49205 4.4936 2.24962C4.4936 1.00719 3.48767 0 2.2468 0C1.00593 0 0 1.00719 0 2.24962C0 3.49205 1.00593 4.49924 2.2468 4.49924Z" fill="#0A142F"/>
<path d="M4.11913 6.00191H0.374466C0.167761 6.00191 0 6.16989 0 6.37685V17.625C0 17.8319 0.167761 17.9999 0.374466 17.9999H4.11913C4.32584 17.9999 4.4936 17.8319 4.4936 17.625V6.37685C4.4936 6.16989 4.32584 6.00191 4.11913 6.00191Z" fill="#0A142F"/>
<path d="M15.2792 5.37847C13.6787 4.82956 11.6768 5.31173 10.4763 6.17633C10.4351 6.01511 10.2883 5.89513 10.1138 5.89513H6.36914C6.16243 5.89513 5.99467 6.0631 5.99467 6.27007V17.5182C5.99467 17.7251 6.16243 17.8931 6.36914 17.8931H10.1138C10.3205 17.8931 10.4883 17.7251 10.4883 17.5182V9.43453C11.0934 8.91262 11.873 8.74615 12.5111 9.0176C13.1298 9.27931 13.484 9.9182 13.484 10.7693V17.5182C13.484 17.7251 13.6518 17.8931 13.8585 17.8931H17.6031C17.8098 17.8931 17.9776 17.7251 17.9776 17.5182V10.0142C17.9349 6.93295 16.4872 5.7924 15.2792 5.37847Z" fill="#0A142F"/>
</svg>
