<svg width="21" height="22" viewBox="0 0 21 22" fill="none" xmlns="http://www.w3.org/2000/svg">
<path d="M10.3077 11.6442C7.58475 11.6442 5.36859 9.42807 5.36859 6.70512C5.36859 3.98218 7.58475 1.76602 10.3077 1.76602C13.0306 1.76602 15.2468 3.98218 15.2468 6.70512C15.2468 9.42807 13.0306 11.6442 10.3077 11.6442ZM10.3077 3.05448C8.29769 3.05448 6.65705 4.69512 6.65705 6.70512C6.65705 8.71512 8.29769 10.3558 10.3077 10.3558C12.3177 10.3558 13.9583 8.71512 13.9583 6.70512C13.9583 4.69512 12.3177 3.05448 10.3077 3.05448Z" fill="#3C3D45"/>
<path d="M17.6864 20.234C17.3342 20.234 17.0422 19.9419 17.0422 19.5897C17.0422 16.6263 14.0186 14.2211 10.3078 14.2211C6.59705 14.2211 3.57347 16.6263 3.57347 19.5897C3.57347 19.9419 3.28141 20.234 2.92923 20.234C2.57705 20.234 2.285 19.9419 2.285 19.5897C2.285 15.9219 5.8841 12.9327 10.3078 12.9327C14.7315 12.9327 18.3306 15.9219 18.3306 19.5897C18.3306 19.9419 18.0386 20.234 17.6864 20.234Z" fill="#3C3D45"/>
</svg>
