<svg width="21" height="22" viewBox="0 0 21 22" fill="none" xmlns="http://www.w3.org/2000/svg">
<path d="M18.0846 7.34937H2.62308C2.2709 7.34937 1.97885 7.05732 1.97885 6.70514C1.97885 6.35296 2.2709 6.06091 2.62308 6.06091H18.0846C18.4368 6.06091 18.7288 6.35296 18.7288 6.70514C18.7288 7.05732 18.4368 7.34937 18.0846 7.34937Z" fill="#3C3D45"/>
<path d="M18.0846 11.6442H2.62308C2.2709 11.6442 1.97885 11.3522 1.97885 11C1.97885 10.6478 2.2709 10.3558 2.62308 10.3558H18.0846C18.4368 10.3558 18.7288 10.6478 18.7288 11C18.7288 11.3522 18.4368 11.6442 18.0846 11.6442Z" fill="#3C3D45"/>
<path d="M18.0846 15.9391H2.62308C2.2709 15.9391 1.97885 15.647 1.97885 15.2949C1.97885 14.9427 2.2709 14.6506 2.62308 14.6506H18.0846C18.4368 14.6506 18.7288 14.9427 18.7288 15.2949C18.7288 15.647 18.4368 15.9391 18.0846 15.9391Z" fill="#3C3D45"/>
</svg>
