<svg width="22" height="22" viewBox="0 0 22 22" fill="none" xmlns="http://www.w3.org/2000/svg">
<path d="M10.4013 19.375C5.54808 19.375 1.59679 15.4237 1.59679 10.5705C1.59679 5.7173 5.54808 1.76602 10.4013 1.76602C15.2545 1.76602 19.2058 5.7173 19.2058 10.5705C19.2058 15.4237 15.2545 19.375 10.4013 19.375ZM10.4013 3.05448C6.25244 3.05448 2.88526 6.43025 2.88526 10.5705C2.88526 14.7108 6.25244 18.0865 10.4013 18.0865C14.5501 18.0865 17.9173 14.7108 17.9173 10.5705C17.9173 6.43025 14.5501 3.05448 10.4013 3.05448Z" fill="#3C3D45"/>
<path d="M19.4205 20.234C19.2573 20.234 19.0941 20.1739 18.9653 20.045L17.2473 18.3271C16.9982 18.078 16.9982 17.6657 17.2473 17.4166C17.4964 17.1675 17.9087 17.1675 18.1578 17.4166L19.8758 19.1345C20.1249 19.3836 20.1249 19.7959 19.8758 20.045C19.7469 20.1739 19.5837 20.234 19.4205 20.234Z" fill="#3C3D45"/>
</svg>
