<svg width="19" height="16" viewBox="0 0 19 16" fill="none" xmlns="http://www.w3.org/2000/svg">
<path d="M18.8081 1.94891C18.6831 1.80747 18.4816 1.7719 18.3163 1.85913C18.2135 1.91334 18.0203 1.98448 17.7908 2.05478C18.0803 1.6584 18.313 1.21459 18.4158 0.815674C18.4602 0.64374 18.3953 0.46249 18.2538 0.360007C18.1124 0.258372 17.924 0.258372 17.7826 0.360007C17.5597 0.520083 16.484 1.00116 15.8039 1.157C14.2668 -0.22948 12.4781 -0.373463 10.6186 0.744529C9.10703 1.65332 8.77807 3.5014 8.84222 4.62786C5.38237 4.28484 3.23178 2.40288 2.0212 0.845317C1.93649 0.736059 1.79997 0.678466 1.67168 0.686935C1.53681 0.697099 1.41509 0.774172 1.34601 0.893594C0.773614 1.88878 0.61489 2.98898 0.888751 4.07564C1.03843 4.66851 1.29995 5.19109 1.60342 5.61457C1.45785 5.54088 1.31722 5.44857 1.18482 5.33846C1.0631 5.23513 0.892863 5.21565 0.748942 5.28425C0.605844 5.35455 0.514557 5.50362 0.514557 5.66708C0.514557 7.53294 1.64783 8.77798 2.70626 9.42845C2.5352 9.40727 2.35674 9.36831 2.17664 9.31157C2.02202 9.26329 1.85425 9.31157 1.74734 9.43692C1.64043 9.56142 1.61493 9.73928 1.68155 9.89089C2.27615 11.2452 3.40284 12.1768 4.79681 12.5148C3.57966 13.2508 1.95047 13.6116 0.458634 13.4346C0.265369 13.4066 0.0811501 13.5328 0.0202922 13.7242C-0.0405657 13.9157 0.0392075 14.1257 0.209445 14.224C2.4727 15.5325 4.51884 16 6.28701 16C8.86031 16 10.8464 15.0108 12.0554 14.1833C15.3145 11.9558 17.3459 7.95642 17.063 4.378C17.5852 3.98078 18.3665 3.24731 18.8509 2.45878C18.9512 2.29955 18.9331 2.08951 18.8081 1.94891Z" fill="#0A142F"/>
</svg>
