<svg width="175" height="38" viewBox="0 0 175 38" fill="none" xmlns="http://www.w3.org/2000/svg">
<path fill-rule="evenodd" clip-rule="evenodd" d="M17.2686 5.53448C10.5126 5.53448 5.03589 11.5522 5.03589 18.9754C5.03589 26.3986 10.5126 32.4163 17.2686 32.4163C24.0245 32.4163 29.5012 26.3986 29.5012 18.9754C29.5012 11.5522 24.0245 5.53448 17.2686 5.53448ZM3.59675 18.9754C3.59675 10.6789 9.71783 3.9532 17.2686 3.9532C24.8193 3.9532 30.9404 10.6789 30.9404 18.9754C30.9404 27.2719 24.8193 33.9975 17.2686 33.9975C9.71783 33.9975 3.59675 27.2719 3.59675 18.9754Z" fill="black"/>
<path fill-rule="evenodd" clip-rule="evenodd" d="M17.2687 11.8596C15.2817 11.8596 13.6708 13.6295 13.6708 15.8128C13.6708 17.9961 15.2817 19.766 17.2687 19.766C19.2557 19.766 20.8665 17.9961 20.8665 15.8128C20.8665 13.6295 19.2557 11.8596 17.2687 11.8596ZM12.2317 15.8128C12.2317 12.7562 14.4868 10.2783 17.2687 10.2783C20.0505 10.2783 22.3057 12.7562 22.3057 15.8128C22.3057 18.8694 20.0505 21.3473 17.2687 21.3473C14.4868 21.3473 12.2317 18.8694 12.2317 15.8128Z" fill="black"/>
<path fill-rule="evenodd" clip-rule="evenodd" d="M17.2682 25.3005C13.8067 25.3005 10.7833 27.366 9.16484 30.4402L7.91912 29.6484C9.78429 26.1057 13.2722 23.7192 17.2682 23.7192C21.2643 23.7192 24.7522 26.1057 26.6173 29.6484L25.3716 30.4402C23.7531 27.366 20.7298 25.3005 17.2682 25.3005Z" fill="black"/>
<path fill-rule="evenodd" clip-rule="evenodd" d="M86.3479 5.53448C81.1816 5.53448 76.9935 10.1362 76.9935 15.8128C76.9935 21.4894 81.1816 26.0911 86.3479 26.0911C91.5142 26.0911 95.7023 21.4894 95.7023 15.8128C95.7023 10.1362 91.5142 5.53448 86.3479 5.53448ZM75.5543 15.8128C75.5543 9.26293 80.3868 3.9532 86.3479 3.9532C92.309 3.9532 97.1414 9.26293 97.1414 15.8128C97.1414 22.3627 92.309 27.6724 86.3479 27.6724C80.3868 27.6724 75.5543 22.3627 75.5543 15.8128Z" fill="black"/>
<path fill-rule="evenodd" clip-rule="evenodd" d="M92.1041 15.8128C92.1041 12.3195 89.5268 9.48769 86.3475 9.48769V7.90641C90.3216 7.90641 93.5432 11.4462 93.5432 15.8128H92.1041Z" fill="black"/>
<path fill-rule="evenodd" clip-rule="evenodd" d="M94.0521 23.1602L102.687 32.6478L101.669 33.766L93.0345 24.2783L94.0521 23.1602Z" fill="black"/>
<path fill-rule="evenodd" clip-rule="evenodd" d="M162.047 19.766H144.778V18.1847H162.047V19.766Z" fill="black"/>
<path fill-rule="evenodd" clip-rule="evenodd" d="M157.519 12.8818L162.556 18.4163C162.837 18.7251 162.837 19.2257 162.556 19.5344L157.519 25.0689L156.502 23.9508L161.03 18.9754L156.502 14L157.519 12.8818Z" fill="black"/>
<path fill-rule="evenodd" clip-rule="evenodd" d="M152.693 6.32512C152.693 5.88847 153.015 5.53448 153.412 5.53448H170.682C171.08 5.53448 171.402 5.88847 171.402 6.32512V31.6256C171.402 32.0623 171.08 32.4163 170.682 32.4163H153.412C153.015 32.4163 152.693 32.0623 152.693 31.6256V26.8818H154.132V30.835H169.963V7.11577H154.132V11.069H152.693V6.32512Z" fill="black"/>
</svg>
