<svg width="20" height="20" viewBox="0 0 20 20" fill="none" xmlns="http://www.w3.org/2000/svg">
<path d="M7.81515 15.2804C7.66536 15.2804 7.51557 15.2252 7.39731 15.107L2.6119 10.3215C2.38327 10.0929 2.38327 9.7145 2.6119 9.48587L7.39731 4.70046C7.62594 4.47183 8.00436 4.47183 8.23299 4.70046C8.46161 4.92909 8.46161 5.30751 8.23299 5.53614L3.86541 9.90371L8.23299 14.2713C8.46161 14.4999 8.46161 14.8783 8.23299 15.107C8.12261 15.2252 7.96494 15.2804 7.81515 15.2804Z" fill="#3C3D45"/>
<path d="M16.4323 10.495H3.16403C2.8408 10.495 2.57275 10.2269 2.57275 9.90372C2.57275 9.58049 2.8408 9.31244 3.16403 9.31244H16.4323C16.7555 9.31244 17.0236 9.58049 17.0236 9.90372C17.0236 10.2269 16.7555 10.495 16.4323 10.495Z" fill="#3C3D45"/>
</svg>
