<svg width="20" height="20" viewBox="0 0 20 20" fill="none" xmlns="http://www.w3.org/2000/svg">
<path d="M9.86024 18.1424C5.1852 18.1424 1.38525 14.3424 1.38525 9.66737C1.38525 4.99233 5.1852 1.19238 9.86024 1.19238C14.5353 1.19238 18.3352 4.99233 18.3352 9.66737C18.3352 14.3424 14.5353 18.1424 9.86024 18.1424ZM9.86024 2.37494C5.83955 2.37494 2.56781 5.64668 2.56781 9.66737C2.56781 13.6881 5.83955 16.9598 9.86024 16.9598C13.8809 16.9598 17.1527 13.6881 17.1527 9.66737C17.1527 5.64668 13.8809 2.37494 9.86024 2.37494Z" fill="#6D6D74"/>
<path d="M12.7853 12.7657C12.6828 12.7657 12.5803 12.742 12.4857 12.679L10.0418 11.2205C9.43472 10.8578 8.98535 10.0616 8.98535 9.35991V6.12759C8.98535 5.80436 9.2534 5.53632 9.57663 5.53632C9.89986 5.53632 10.1679 5.80436 10.1679 6.12759V9.35991C10.1679 9.64373 10.4044 10.0616 10.6488 10.2035L13.0928 11.662C13.3766 11.8275 13.4633 12.1902 13.2977 12.474C13.1795 12.6632 12.9824 12.7657 12.7853 12.7657Z" fill="#6D6D74"/>
</svg>
