<svg width="15" height="15" viewBox="0 0 15 15" fill="none" xmlns="http://www.w3.org/2000/svg">
<path d="M10.9882 14.9998H4.01158C0.934873 14.9998 0 14.065 0 10.9882V4.01158C0 0.934873 0.934873 0 4.01158 0H5.05808C6.279 0 6.66272 0.39767 7.15108 1.0465L8.19758 2.44183C8.42781 2.74881 8.4627 2.79067 8.89525 2.79067H10.9882C14.065 2.79067 14.9998 3.72554 14.9998 6.80225V10.9882C14.9998 14.065 14.065 14.9998 10.9882 14.9998ZM4.01158 1.0465C1.51394 1.0465 1.0465 1.52091 1.0465 4.01158V10.9882C1.0465 13.4789 1.51394 13.9533 4.01158 13.9533H10.9882C13.4859 13.9533 13.9533 13.4789 13.9533 10.9882V6.80225C13.9533 4.31158 13.4859 3.83717 10.9882 3.83717H8.89525C8.00224 3.83717 7.70921 3.53019 7.36038 3.06973L6.31388 1.6744C5.9511 1.19301 5.83947 1.0465 5.05808 1.0465H4.01158Z" fill="#6D6D74"/>
</svg>
