<svg width="16" height="16" viewBox="0 0 16 16" fill="none" xmlns="http://www.w3.org/2000/svg">
<path d="M13.7466 8.71328C13.4933 8.71328 13.2799 8.51995 13.2466 8.26661C13.0866 6.75995 12.2733 5.39328 11.0199 4.52661C10.7933 4.36661 10.7399 4.05995 10.8933 3.83328C11.0533 3.60661 11.3666 3.55328 11.5866 3.70661C13.0799 4.73995 14.0399 6.36661 14.2333 8.15995C14.2599 8.43328 14.0666 8.67995 13.7866 8.71328C13.7799 8.71328 13.7599 8.71328 13.7466 8.71328Z" fill="white"/>
<path d="M2.3266 8.74668C2.3066 8.74668 2.29327 8.74668 2.27327 8.74668C1.99994 8.71334 1.79994 8.46668 1.8266 8.19334C2.0066 6.40001 2.95994 4.78001 4.43327 3.73334C4.65994 3.57334 4.97327 3.62668 5.13327 3.85334C5.29327 4.08001 5.23994 4.39334 5.01327 4.55334C3.77327 5.42668 2.97327 6.79334 2.81994 8.30001C2.79994 8.55334 2.57994 8.74668 2.3266 8.74668Z" fill="white"/>
<path d="M8.04014 15.0734C7.05347 15.0734 6.11347 14.8467 5.23347 14.4067C4.98681 14.28 4.88681 13.98 5.01347 13.7334C5.14014 13.4867 5.44014 13.3867 5.68681 13.5134C7.12681 14.24 8.86014 14.2534 10.3135 13.5534C10.5601 13.4334 10.8601 13.54 10.9801 13.7867C11.1001 14.0334 10.9935 14.3334 10.7468 14.4534C9.89347 14.8667 8.98681 15.0734 8.04014 15.0734Z" fill="white"/>
<path d="M8.03986 5.62671C6.73986 5.62671 5.68652 4.57338 5.68652 3.27338C5.68652 1.97338 6.73986 0.920044 8.03986 0.920044C9.33986 0.920044 10.3932 1.97338 10.3932 3.27338C10.3932 4.57338 9.33319 5.62671 8.03986 5.62671ZM8.03986 1.92671C7.29319 1.92671 6.68652 2.53338 6.68652 3.28004C6.68652 4.02671 7.29319 4.63338 8.03986 4.63338C8.78652 4.63338 9.39319 4.02671 9.39319 3.28004C9.39319 2.53338 8.77986 1.92671 8.03986 1.92671Z" fill="white"/>
<path d="M3.22003 13.78C1.92003 13.78 0.866699 12.7267 0.866699 11.4267C0.866699 10.1334 1.92003 9.07336 3.22003 9.07336C4.52003 9.07336 5.57337 10.1267 5.57337 11.4267C5.57337 12.72 4.52003 13.78 3.22003 13.78ZM3.22003 10.0734C2.47337 10.0734 1.8667 10.68 1.8667 11.4267C1.8667 12.1734 2.47337 12.78 3.22003 12.78C3.9667 12.78 4.57337 12.1734 4.57337 11.4267C4.57337 10.68 3.9667 10.0734 3.22003 10.0734Z" fill="white"/>
<path d="M12.7801 13.78C11.4801 13.78 10.4268 12.7267 10.4268 11.4267C10.4268 10.1334 11.4801 9.07336 12.7801 9.07336C14.0801 9.07336 15.1334 10.1267 15.1334 11.4267C15.1268 12.72 14.0734 13.78 12.7801 13.78ZM12.7801 10.0734C12.0334 10.0734 11.4268 10.68 11.4268 11.4267C11.4268 12.1734 12.0334 12.78 12.7801 12.78C13.5268 12.78 14.1334 12.1734 14.1334 11.4267C14.1268 10.68 13.5268 10.0734 12.7801 10.0734Z" fill="white"/>
</svg>
