<svg width="1052" height="195" viewBox="0 0 1052 195" fill="none" xmlns="http://www.w3.org/2000/svg">
<g filter="url(#filter0_d_546_2037)">
<path d="M1054.87 0H0V151.638C0 151.638 73.5122 204.398 437 161.5C501 157.545 645.756 115.724 846.803 136.175C1138.59 192.042 1054.87 151.638 1054.87 151.638V0Z" fill="#FEE0FF"/>
<path d="M0.5 0.5V151.372C0.644527 151.467 0.866551 151.608 1.17188 151.791C1.78763 152.16 2.74309 152.7 4.0918 153.374C6.78989 154.722 11.061 156.607 17.3271 158.738C29.86 163.001 50.3735 168.249 82.2529 172.159C146.014 179.98 255.222 182.45 436.941 161.004L436.955 161.002L436.969 161.001L438.48 160.901C503.091 156.405 647.338 115.382 846.854 135.678L846.875 135.68L846.896 135.684C919.84 149.649 969.306 157.597 1002.47 161.663C1035.67 165.733 1052.48 165.907 1060.16 164.366C1062.07 163.982 1063.38 163.499 1064.22 162.97C1065.06 162.446 1065.4 161.905 1065.48 161.396C1065.56 160.872 1065.39 160.262 1064.96 159.57C1064.53 158.882 1063.86 158.165 1063.06 157.452C1061.45 156.028 1059.36 154.687 1057.65 153.697C1056.79 153.204 1056.04 152.801 1055.51 152.521C1055.24 152.382 1055.02 152.273 1054.88 152.199C1054.8 152.163 1054.75 152.135 1054.71 152.116C1054.69 152.107 1054.67 152.099 1054.67 152.095C1054.66 152.092 1054.66 152.091 1054.65 152.09C1054.65 152.089 1054.65 152.089 1054.65 152.089V152.088L1054.37 151.952V0.5H0.5Z" stroke="#FDB2F8"/>
</g>
<defs>
<filter id="filter0_d_546_2037" x="0" y="0" width="1112" height="194.307" filterUnits="userSpaceOnUse" color-interpolation-filters="sRGB">
<feFlood flood-opacity="0" result="BackgroundImageFix"/>
<feColorMatrix in="SourceAlpha" type="matrix" values="0 0 0 0 0 0 0 0 0 0 0 0 0 0 0 0 0 0 127 0" result="hardAlpha"/>
<feOffset dx="46" dy="16"/>
<feComposite in2="hardAlpha" operator="out"/>
<feColorMatrix type="matrix" values="0 0 0 0 0.996078 0 0 0 0 0.941176 0 0 0 0 0.992157 0 0 0 1 0"/>
<feBlend mode="normal" in2="BackgroundImageFix" result="effect1_dropShadow_546_2037"/>
<feBlend mode="normal" in="SourceGraphic" in2="effect1_dropShadow_546_2037" result="shape"/>
</filter>
</defs>
</svg>
