<svg width="1052" height="191" viewBox="0 0 1052 191" fill="none" xmlns="http://www.w3.org/2000/svg">
<g filter="url(#filter0_d_546_2129)">
<path d="M1054.87 -4H0V147.638C0 147.638 73.5122 200.398 437 157.5C501 153.545 645.756 111.724 846.803 132.175C1138.59 188.042 1054.87 147.638 1054.87 147.638V-4Z" fill="#FFF5D4"/>
<path d="M0.5 -3.5V147.372C0.644527 147.467 0.866551 147.608 1.17188 147.791C1.78763 148.16 2.74309 148.7 4.0918 149.374C6.78989 150.722 11.061 152.607 17.3271 154.738C29.86 159.001 50.3735 164.249 82.2529 168.159C146.014 175.98 255.222 178.45 436.941 157.004L436.955 157.002L436.969 157.001L438.48 156.901C503.091 152.405 647.338 111.382 846.854 131.678L846.875 131.68L846.896 131.684C919.84 145.649 969.306 153.597 1002.47 157.663C1035.67 161.733 1052.48 161.907 1060.16 160.366C1062.07 159.982 1063.38 159.499 1064.22 158.97C1065.06 158.446 1065.4 157.905 1065.48 157.396C1065.56 156.872 1065.39 156.262 1064.96 155.57C1064.53 154.882 1063.86 154.165 1063.06 153.452C1061.45 152.028 1059.36 150.687 1057.65 149.697C1056.79 149.204 1056.04 148.801 1055.51 148.521C1055.24 148.382 1055.02 148.273 1054.88 148.199C1054.8 148.163 1054.75 148.135 1054.71 148.116C1054.69 148.107 1054.67 148.099 1054.67 148.095C1054.66 148.092 1054.66 148.091 1054.65 148.09C1054.65 148.089 1054.65 148.089 1054.65 148.089V148.088L1054.37 147.952V-3.5H0.5Z" stroke="#FDE9B2"/>
</g>
<defs>
<filter id="filter0_d_546_2129" x="0" y="-4" width="1112" height="194.307" filterUnits="userSpaceOnUse" color-interpolation-filters="sRGB">
<feFlood flood-opacity="0" result="BackgroundImageFix"/>
<feColorMatrix in="SourceAlpha" type="matrix" values="0 0 0 0 0 0 0 0 0 0 0 0 0 0 0 0 0 0 127 0" result="hardAlpha"/>
<feOffset dx="46" dy="16"/>
<feComposite in2="hardAlpha" operator="out"/>
<feColorMatrix type="matrix" values="0 0 0 0 0.996078 0 0 0 0 0.981438 0 0 0 0 0.941176 0 0 0 1 0"/>
<feBlend mode="normal" in2="BackgroundImageFix" result="effect1_dropShadow_546_2129"/>
<feBlend mode="normal" in="SourceGraphic" in2="effect1_dropShadow_546_2129" result="shape"/>
</filter>
</defs>
</svg>
