<svg width="35" height="35" viewBox="0 0 35 35" fill="none" xmlns="http://www.w3.org/2000/svg">
<path fill-rule="evenodd" clip-rule="evenodd" d="M2.1875 2.91667C2.1875 2.51396 2.51396 2.1875 2.91667 2.1875H20.4167C20.8194 2.1875 21.1458 2.51396 21.1458 2.91667V5.10417H19.6875V3.64583H3.64583V25.5208H10.9375V26.9792H2.91667C2.51396 26.9792 2.1875 26.6527 2.1875 26.25V2.91667Z" fill="black"/>
<path fill-rule="evenodd" clip-rule="evenodd" d="M13.8542 8.75004C13.8542 8.34733 14.1806 8.02087 14.5833 8.02087H32.0833C32.486 8.02087 32.8125 8.34733 32.8125 8.75004V32.0834C32.8125 32.4861 32.486 32.8125 32.0833 32.8125H14.5833C14.1806 32.8125 13.8542 32.4861 13.8542 32.0834V8.75004ZM15.3125 9.47921V31.3542H31.3542V9.47921H15.3125Z" fill="black"/>
<path fill-rule="evenodd" clip-rule="evenodd" d="M24.7917 16.7708H18.9583V15.3125H24.7917V16.7708Z" fill="black"/>
<path fill-rule="evenodd" clip-rule="evenodd" d="M27.7083 21.1458H18.9583V19.6875H27.7083V21.1458Z" fill="black"/>
<path fill-rule="evenodd" clip-rule="evenodd" d="M23.3333 25.5208H18.9583V24.0625H23.3333V25.5208Z" fill="black"/>
</svg>
