<svg width="35" height="35" viewBox="0 0 35 35" fill="none" xmlns="http://www.w3.org/2000/svg">
<path fill-rule="evenodd" clip-rule="evenodd" d="M2.1875 5.10417C2.1875 4.70146 2.51396 4.375 2.91667 4.375H8.2487V5.83333H3.64583V29.1667H14.5833V30.625H2.91667C2.51396 30.625 2.1875 30.2985 2.1875 29.8958V5.10417ZM22.6042 5.83333H17.5V4.375H23.3333C23.736 4.375 24.0625 4.70146 24.0625 5.10417V12.3958H22.6042V5.83333Z" fill="black"/>
<path fill-rule="evenodd" clip-rule="evenodd" d="M18.2292 16.0417C18.2292 15.639 18.5556 15.3125 18.9583 15.3125H32.0833C32.486 15.3125 32.8125 15.639 32.8125 16.0417V32.0833C32.8125 32.486 32.486 32.8125 32.0833 32.8125H18.9583C18.5556 32.8125 18.2292 32.486 18.2292 32.0833V16.0417ZM19.6875 16.7708V31.3542H31.3542V16.7708H19.6875Z" fill="black"/>
<path fill-rule="evenodd" clip-rule="evenodd" d="M8.02083 2.91667C8.02083 2.51396 8.34729 2.1875 8.74999 2.1875H17.5C17.9027 2.1875 18.2292 2.51396 18.2292 2.91667V7.29167C18.2292 7.69437 17.9027 8.02083 17.5 8.02083H8.74999C8.34729 8.02083 8.02083 7.69437 8.02083 7.29167V2.91667ZM9.47916 3.64583V6.5625H16.7708V3.64583H9.47916Z" fill="black"/>
<path fill-rule="evenodd" clip-rule="evenodd" d="M26.25 21.875H22.6042V20.4167H26.25V21.875Z" fill="black"/>
<path fill-rule="evenodd" clip-rule="evenodd" d="M28.4375 26.25H22.6042V24.7917H28.4375V26.25Z" fill="black"/>
</svg>
