<svg width="29" height="29" viewBox="0 0 29 29" fill="none" xmlns="http://www.w3.org/2000/svg">
<path d="M21.7917 18.875V7.20833H24.7083C26.3192 7.20833 27.625 8.51417 27.625 10.125V24.7083C27.625 26.3192 26.3192 27.625 24.7083 27.625H10.125C8.51417 27.625 7.20833 26.3192 7.20833 24.7083V21.7917H18.875M21.7917 18.875C21.7917 20.4858 20.4858 21.7917 18.875 21.7917M21.7917 18.875V4.29167C21.7917 2.68084 20.4858 1.375 18.875 1.375H4.29167C2.68084 1.375 1.375 2.68084 1.375 4.29167V18.875M21.7917 18.875V11.3002C21.7809 11.2919 21.7701 11.2836 21.7592 11.2754L20.5749 10.3873C19.3452 9.46497 17.6108 9.65536 16.6104 10.8224L13.3932 14.5759C12.3799 15.758 10.6169 15.9359 9.388 14.9801L8.2109 14.0645C7.18525 13.2668 5.75558 13.2438 4.70474 14.008L1.44183 16.381C1.41928 16.3974 1.397 16.4141 1.375 16.4311V18.875M18.875 21.7917H4.29167C2.68084 21.7917 1.375 20.4858 1.375 18.875M10.8542 7.20833C10.8542 8.41646 9.87479 9.39583 8.66667 9.39583C7.45854 9.39583 6.47917 8.41646 6.47917 7.20833C6.47917 6.00021 7.45854 5.02083 8.66667 5.02083C9.87479 5.02083 10.8542 6.00021 10.8542 7.20833Z" stroke="black" stroke-width="1.5" stroke-linecap="round" stroke-linejoin="round"/>
</svg>
