<svg width="44" height="45" viewBox="0 0 44 45" fill="none" xmlns="http://www.w3.org/2000/svg">
<path fill-rule="evenodd" clip-rule="evenodd" d="M22 2.56417C11.0694 2.56417 2.20833 11.4252 2.20833 22.3558C2.20833 33.2865 11.0694 42.1475 22 42.1475C32.9306 42.1475 41.7917 33.2865 41.7917 22.3558C41.7917 11.4252 32.9306 2.56417 22 2.56417ZM0.125 22.3558C0.125 10.2746 9.91877 0.480835 22 0.480835C34.0812 0.480835 43.875 10.2746 43.875 22.3558C43.875 34.4371 34.0812 44.2308 22 44.2308C9.91877 44.2308 0.125 34.4371 0.125 22.3558Z" fill="white"/>
<path fill-rule="evenodd" clip-rule="evenodd" d="M17.1492 13.055C16.8543 13.1753 16.7923 13.3484 16.7923 13.447L16.7923 31.2647C16.7923 31.3633 16.8543 31.5363 17.1492 31.6566C17.4412 31.7757 17.7881 31.7535 18.0464 31.5781L31.1667 22.6693C31.3459 22.5476 31.3757 22.4229 31.3757 22.3558C31.3757 22.2887 31.3459 22.1641 31.1667 22.0424L18.0464 13.1336C17.7881 12.9582 17.4412 12.9359 17.1492 13.055ZM16.3623 11.126C17.2205 10.7759 18.314 10.797 19.2167 11.41L32.337 20.3188C33.0451 20.7997 33.459 21.549 33.459 22.3558C33.459 23.1627 33.0451 23.912 32.337 24.3928L19.2167 33.3017C18.314 33.9146 17.2205 33.9357 16.3623 33.5856C15.507 33.2367 14.709 32.428 14.709 31.2647L14.709 13.447C14.709 12.2837 15.507 11.4749 16.3623 11.126Z" fill="white"/>
</svg>
