<svg width="29" height="29" viewBox="0 0 29 29" fill="none" xmlns="http://www.w3.org/2000/svg">
<path d="M1.375 10.125H27.625M9.39555 10.125L10.8539 1.375M18.1458 10.125L19.6042 1.375M7.20833 27.625H21.7917C25.0133 27.625 27.625 25.0133 27.625 21.7917V7.20833C27.625 3.98667 25.0133 1.375 21.7917 1.375H7.20833C3.98667 1.375 1.375 3.98667 1.375 7.20833V21.7917C1.375 25.0133 3.98667 27.625 7.20833 27.625ZM13.4461 15.2558L17.9649 18.2683C18.3979 18.5569 18.3979 19.1931 17.9649 19.4817L13.4461 22.4942C12.9616 22.8173 12.3125 22.4699 12.3125 21.8875V15.8625C12.3125 15.2801 12.9616 14.9327 13.4461 15.2558Z" stroke="black" stroke-width="1.5" stroke-linecap="round" stroke-linejoin="round"/>
</svg>
