<svg width="27" height="31" viewBox="0 0 27 31" fill="none" xmlns="http://www.w3.org/2000/svg">
<path fill-rule="evenodd" clip-rule="evenodd" d="M0.645996 0.916667C0.645996 0.513959 0.972455 0.1875 1.37516 0.1875H21.7918C22.1945 0.1875 22.521 0.513959 22.521 0.916667V26.4375C22.521 26.8402 22.1945 27.1667 21.7918 27.1667H1.37516C0.972455 27.1667 0.645996 26.8402 0.645996 26.4375V0.916667ZM2.10433 1.64583V25.7083H21.0627V1.64583H2.10433Z" fill="black"/>
<path fill-rule="evenodd" clip-rule="evenodd" d="M25.4376 4.22354L21.3872 1.52334L22.1962 0.309937L26.5712 3.2266C26.774 3.36184 26.8959 3.58951 26.8959 3.83331V30.0833C26.8959 30.486 26.5694 30.8125 26.1667 30.8125H4.29172C4.07021 30.8125 3.86071 30.7118 3.72233 30.5388L0.805664 26.893L1.94443 25.982L4.64217 29.3541H25.4376V4.22354Z" fill="black"/>
<path fill-rule="evenodd" clip-rule="evenodd" d="M5.021 5.29167C5.021 4.88896 5.34746 4.5625 5.75016 4.5625H17.4168C17.8195 4.5625 18.146 4.88896 18.146 5.29167V9.66667C18.146 10.0694 17.8195 10.3958 17.4168 10.3958H5.75016C5.34746 10.3958 5.021 10.0694 5.021 9.66667V5.29167ZM6.47933 6.02083V8.9375H16.6877V6.02083H6.47933Z" fill="black"/>
</svg>
