<svg width="65" height="77" viewBox="0 0 65 77" fill="none" xmlns="http://www.w3.org/2000/svg">
<g clip-path="url(#clip0_397_2414)">
<path d="M32.4827 45.1157C38.3135 45.1157 43.0076 49.9377 43.0076 55.9113C43.0076 61.892 38.3135 66.6996 32.4827 66.6996C26.6519 66.6996 21.9578 61.892 21.9578 55.9113C21.9578 49.9377 26.6519 45.1157 32.4827 45.1157ZM3.53918 32.816C5.21791 34.5739 7.54742 35.6696 10.1172 35.6696H11.5978C12.1871 37.9889 14.2553 39.718 16.6953 39.718C19.1283 39.718 21.1965 37.9889 21.7859 35.6696H43.1795C43.7689 37.9889 45.8388 39.718 48.277 39.718C50.71 39.718 52.7729 37.9889 53.3606 35.6696H54.8481C57.4179 35.6696 59.7474 34.5811 61.4262 32.8232V45.1157C61.4262 50.3516 57.3214 54.5618 52.2169 54.5618H45.5774C44.9126 47.7588 39.287 42.4168 32.4827 42.4168C25.6783 42.4168 20.0598 47.7588 19.3879 54.5618H12.7485C7.6439 54.5618 3.53918 50.3516 3.53918 45.1157V32.816ZM48.277 31.6213C49.7435 31.6213 50.8942 32.8088 50.8942 34.3202C50.8942 35.8244 49.7435 37.0191 48.277 37.0191C46.8036 37.0191 45.6458 35.8244 45.6458 34.3202C45.6458 32.8088 46.8036 31.6213 48.277 31.6213ZM16.6953 31.6213C18.1618 31.6213 19.3265 32.8088 19.3265 34.3202C19.3265 35.8244 18.1618 37.0191 16.6953 37.0191C15.2218 37.0191 14.0571 35.8244 14.0571 34.3202C14.0571 32.8088 15.2218 31.6213 16.6953 31.6213ZM12.7485 11.3797H52.2169C57.3214 11.3797 61.4262 15.59 61.4262 20.8186V26.2164C61.4262 29.9624 58.4932 32.9708 54.8481 32.9708H53.3606C52.7782 30.6515 50.7153 28.9224 48.277 28.9224C45.8388 28.9224 43.7689 30.6515 43.1795 32.9708H21.7859C21.2035 30.6515 19.1353 28.9224 16.6953 28.9224C14.2553 28.9224 12.1801 30.6515 11.5978 32.9708H10.1172C6.47212 32.9708 3.53918 29.9624 3.53918 26.2164V20.8186C3.53918 15.59 7.6439 11.3797 12.7485 11.3797ZM27.2202 3.27586H37.7451C38.4924 3.27586 39.0607 3.87321 39.0607 4.6325V8.68082H25.9116V4.6325C25.9116 3.87321 26.48 3.27586 27.2202 3.27586ZM27.2202 0.576977C25.0556 0.576977 23.2734 2.41222 23.2734 4.6325V8.68082H12.7485C6.22479 8.68082 0.907959 14.1272 0.907959 20.8186V45.1157C0.907959 51.8072 6.22479 57.2607 12.7485 57.2607H19.3879C20.0528 64.0709 25.6783 69.4057 32.4827 69.4057C35.6349 69.4057 38.5327 68.2595 40.8079 66.3559L49.9768 75.7606C50.4908 76.2806 51.3205 76.2806 51.8274 75.7606C52.3484 75.2334 52.3484 74.3752 51.8274 73.848L42.6655 64.4433C44.2618 62.4479 45.3178 59.974 45.5774 57.2607H52.2169C58.7405 57.2607 64.0574 51.8072 64.0574 45.1157V20.8186C64.0574 14.1272 58.7405 8.68082 52.2169 8.68082H41.692V4.6325C41.692 2.41222 39.9097 0.576977 37.7451 0.576977H27.2202Z" fill="#997C70"/>
</g>
<defs>
<clipPath id="clip0_397_2414">
<rect width="63.1494" height="75.5723" fill="white" transform="translate(0.907959 0.576977)"/>
</clipPath>
</defs>
</svg>
