<svg width="21" height="21" viewBox="0 0 21 21" fill="none" xmlns="http://www.w3.org/2000/svg">
<path fill-rule="evenodd" clip-rule="evenodd" d="M8.75 3.0625C5.60888 3.0625 3.0625 5.60888 3.0625 8.75C3.0625 11.8911 5.60888 14.4375 8.75 14.4375C11.8911 14.4375 14.4375 11.8911 14.4375 8.75C14.4375 5.60888 11.8911 3.0625 8.75 3.0625ZM2.1875 8.75C2.1875 5.12563 5.12563 2.1875 8.75 2.1875C12.3744 2.1875 15.3125 5.12563 15.3125 8.75C15.3125 12.3744 12.3744 15.3125 8.75 15.3125C5.12563 15.3125 2.1875 12.3744 2.1875 8.75Z" fill="#A1A1A1"/>
<path fill-rule="evenodd" clip-rule="evenodd" d="M12.25 8.75C12.25 6.817 10.683 5.25 8.75 5.25V4.375C11.1662 4.375 13.125 6.33375 13.125 8.75H12.25Z" fill="#A1A1A1"/>
<path fill-rule="evenodd" clip-rule="evenodd" d="M13.4341 12.8156L18.6841 18.0656L18.0654 18.6844L12.8154 13.4344L13.4341 12.8156Z" fill="#A1A1A1"/>
</svg>
