<svg width="25" height="31" viewBox="0 0 25 31" fill="none" xmlns="http://www.w3.org/2000/svg">
<path fill-rule="evenodd" clip-rule="evenodd" d="M3.74984 1.64583C2.54171 1.64583 1.56234 2.62521 1.56234 3.83333V27.1667C1.56234 28.3748 2.54171 29.3542 3.74984 29.3542H21.2498C22.458 29.3542 23.4373 28.3748 23.4373 27.1667V11.0081C23.4373 10.3696 23.1583 9.76286 22.6734 9.34727L14.3028 2.17246C13.9064 1.83263 13.4014 1.64583 12.8792 1.64583H3.74984ZM0.104004 3.83333C0.104004 1.8198 1.7363 0.1875 3.74984 0.1875H12.8792C13.7495 0.1875 14.5911 0.498826 15.2519 1.06521L23.6225 8.24002C24.4306 8.93266 24.8957 9.94383 24.8957 11.0081V27.1667C24.8957 29.1802 23.2634 30.8125 21.2498 30.8125H3.74984C1.7363 30.8125 0.104004 29.1802 0.104004 27.1667V3.83333Z" fill="black"/>
<path fill-rule="evenodd" clip-rule="evenodd" d="M13.229 6.75001V1.64584H14.6873V6.75001C14.6873 7.95813 15.6667 8.93751 16.8748 8.93751H23.4373V10.3958H16.8748C14.8613 10.3958 13.229 8.76355 13.229 6.75001Z" fill="black"/>
<path fill-rule="evenodd" clip-rule="evenodd" d="M7.76151 13.4094C7.98791 13.2793 8.26656 13.2803 8.49208 13.4118L17.2421 18.516C17.4661 18.6467 17.6038 18.8865 17.6038 19.1458C17.6038 19.4052 17.4661 19.645 17.2421 19.7757L8.49208 24.8798C8.26656 25.0114 7.98791 25.0123 7.76151 24.8823C7.5351 24.7523 7.39551 24.5111 7.39551 24.25V14.0417C7.39551 13.7806 7.5351 13.5394 7.76151 13.4094ZM8.85384 15.3112V22.9805L15.4275 19.1458L8.85384 15.3112Z" fill="black"/>
</svg>
